<?xml version="1.0" standalone="no"?>
<!DOCTYPE svg PUBLIC "-//W3C//DTD SVG 20010904//EN"
 "http://www.w3.org/TR/2001/REC-SVG-20010904/DTD/svg10.dtd">
<svg version="1.0" xmlns="http://www.w3.org/2000/svg"
 width="700.000000pt" height="700.000000pt" viewBox="0 0 700.000000 700.000000"
 preserveAspectRatio="xMidYMid meet">
<metadata>
Created by potrace 1.14, written by Peter Selinger 2001-2017
</metadata>
<g transform="translate(0.000000,700.000000) scale(0.100000,-0.100000)"
fill="#000000" stroke="none">
<path d="M100 3595 l0 -3405 3400 0 3400 0 0 3405 0 3405 -3400 0 -3400 0 0
-3405z m2219 2199 c12 -15 21 -35 21 -45 0 -10 -18 -64 -40 -121 -23 -57 -72
-209 -110 -338 -77 -264 -267 -861 -460 -1445 -315 -956 -412 -1339 -496
-1973 -19 -143 -16 -160 29 -148 18 4 35 29 75 114 29 60 52 112 52 115 0 6
219 491 390 862 376 819 746 1438 1119 1875 160 188 409 421 579 544 142 103
289 100 343 -7 28 -54 36 -191 19 -308 -17 -119 -98 -430 -176 -679 -134 -427
-174 -564 -238 -817 -36 -142 -72 -298 -81 -347 -20 -117 -23 -259 -6 -280 20
-24 59 -19 88 12 87 93 165 187 278 337 357 472 614 761 761 858 125 83 297
46 370 -79 43 -74 61 -157 110 -514 64 -466 116 -663 203 -762 66 -76 156 -89
258 -38 106 53 144 98 517 607 97 133 190 253 207 267 37 31 63 33 108 5 30
-18 33 -23 28 -56 -17 -101 -389 -593 -647 -854 -143 -144 -186 -168 -321
-176 -67 -5 -82 -2 -131 21 -107 50 -232 210 -282 359 -21 62 -53 239 -111
607 -25 162 -55 326 -66 364 -26 86 -57 121 -101 112 -110 -22 -353 -279 -701
-741 -320 -425 -377 -488 -491 -545 -67 -34 -112 -38 -162 -14 -125 60 -132
333 -19 825 32 141 56 224 205 709 175 570 230 796 230 936 0 54 -3 64 -20 69
-70 22 -390 -253 -625 -535 -282 -340 -587 -817 -826 -1291 -51 -103 -327
-695 -573 -1229 -301 -655 -372 -770 -473 -770 -76 0 -104 59 -111 230 -8 221
18 461 89 815 93 461 194 831 427 1560 50 154 192 602 316 995 226 718 251
791 286 860 41 80 118 106 159 54z"/>
</g>
</svg>
