<?xml version="1.0" standalone="no"?>
<!DOCTYPE svg PUBLIC "-//W3C//DTD SVG 20010904//EN"
 "http://www.w3.org/TR/2001/REC-SVG-20010904/DTD/svg10.dtd">
<svg version="1.0" xmlns="http://www.w3.org/2000/svg"
 width="512.000000pt" height="512.000000pt" viewBox="0 0 512.000000 512.000000"
 preserveAspectRatio="xMidYMid meet">
<metadata>
Created by potrace 1.14, written by Peter Selinger 2001-2017
</metadata>
<g transform="translate(0.000000,512.000000) scale(0.100000,-0.100000)"
fill="#000000" stroke="none">
<path d="M0 2560 l0 -2560 2560 0 2560 0 0 2560 0 2560 -2560 0 -2560 0 0
-2560z m1650 1670 c42 -23 43 -45 6 -144 -19 -51 -53 -158 -76 -237 -47 -163
-259 -828 -355 -1114 -76 -227 -192 -605 -234 -765 -58 -218 -141 -683 -141
-785 0 -28 4 -35 19 -35 24 0 38 22 88 140 146 340 446 981 555 1185 257 480
477 793 748 1066 234 236 356 319 451 306 81 -11 111 -65 110 -201 0 -108 -53
-332 -152 -647 -183 -578 -266 -947 -233 -1033 11 -30 49 -17 96 32 25 26 117
139 203 252 278 360 476 579 568 625 94 46 201 24 252 -53 39 -60 52 -112 90
-381 51 -363 77 -473 135 -564 34 -54 73 -77 130 -77 57 0 101 21 160 76 54
51 81 85 309 396 159 218 174 231 230 212 35 -13 37 -42 8 -101 -56 -109 -314
-437 -467 -593 -74 -76 -93 -89 -149 -108 -120 -40 -189 -23 -278 68 -65 66
-108 147 -133 247 -11 43 -40 207 -65 365 -44 275 -62 355 -86 385 -15 18 -53
16 -92 -3 -76 -40 -263 -248 -482 -539 -270 -357 -337 -424 -434 -428 -140 -5
-167 190 -80 591 21 96 94 348 189 654 89 285 150 537 150 626 0 40 -2 42 -29
42 -90 0 -372 -271 -593 -570 -288 -390 -448 -691 -935 -1760 -164 -362 -235
-491 -287 -525 -36 -24 -85 -16 -109 17 -40 54 -34 329 14 605 63 366 151 697
349 1318 54 171 165 519 245 775 199 634 205 648 253 674 33 19 29 18 52 6z"/>
</g>
</svg>
